<svg width="70" height="88" viewBox="0 0 70 88" fill="none" xmlns="http://www.w3.org/2000/svg">
<path fill-rule="evenodd" clip-rule="evenodd" d="M3.04674 3.71349C4.89085 1.86938 7.392 0.833374 9.99996 0.833374H47.5C47.8978 0.833374 48.2793 0.991409 48.5606 1.27271L69.394 22.106C69.6753 22.3874 69.8333 22.7689 69.8333 23.1667V77.3334C69.8333 79.9413 68.7973 82.4425 66.9532 84.2866C65.1091 86.1307 62.6079 87.1667 60 87.1667H9.99996C7.392 87.1667 4.89085 86.1307 3.04674 84.2866C1.20263 82.4425 0.166626 79.9413 0.166626 77.3334V10.6667C0.166626 8.05875 1.20263 5.5576 3.04674 3.71349ZM66.8333 25.8334V23.788L46.8786 3.83337H44.8333V19C44.8333 20.8124 45.5532 22.5504 46.8347 23.8319C48.1162 25.1134 49.8543 25.8334 51.6666 25.8334H66.8333ZM41.8333 3.83337V19C41.8333 21.608 42.8693 24.1091 44.7134 25.9533C46.5575 27.7974 49.0587 28.8334 51.6666 28.8334H66.8333V77.3334C66.8333 79.1457 66.1133 80.8838 64.8318 82.1653C63.5504 83.4468 61.8123 84.1667 60 84.1667H9.99996C8.18764 84.1667 6.44956 83.4468 5.16806 82.1653C3.88656 80.8838 3.16663 79.1457 3.16663 77.3334V10.6667C3.16663 8.85439 3.88656 7.11631 5.16806 5.83481C6.44956 4.55331 8.18765 3.83337 9.99996 3.83337H41.8333ZM16.8333 31.5C16.8333 30.6716 17.5049 30 18.3333 30H26.6666C27.4951 30 28.1666 30.6716 28.1666 31.5C28.1666 32.3285 27.4951 33 26.6666 33H18.3333C17.5049 33 16.8333 32.3285 16.8333 31.5ZM16.8333 48.1667C16.8333 47.3383 17.5049 46.6667 18.3333 46.6667H51.6666C52.4951 46.6667 53.1666 47.3383 53.1666 48.1667C53.1666 48.9951 52.4951 49.6667 51.6666 49.6667H18.3333C17.5049 49.6667 16.8333 48.9951 16.8333 48.1667ZM16.8333 64.8334C16.8333 64.0049 17.5049 63.3334 18.3333 63.3334H51.6666C52.4951 63.3334 53.1666 64.0049 53.1666 64.8334C53.1666 65.6618 52.4951 66.3334 51.6666 66.3334H18.3333C17.5049 66.3334 16.8333 65.6618 16.8333 64.8334Z" fill="#946CC4"/>
</svg>
