<svg width="74" height="87" viewBox="0 0 74 87" fill="none" xmlns="http://www.w3.org/2000/svg">
<path fill-rule="evenodd" clip-rule="evenodd" d="M26.5 3C24.6877 3 22.9496 3.71994 21.6681 5.00144C20.3866 6.28294 19.6667 8.02102 19.6667 9.83333V59.8333C19.6667 61.6456 20.3866 63.3837 21.6681 64.6652C22.9496 65.9467 24.6877 66.6667 26.5 66.6667H64C65.8123 66.6667 67.5504 65.9467 68.8319 64.6652C70.1134 63.3837 70.8333 61.6456 70.8333 59.8333V23.8333H59.8333C57.2254 23.8333 54.7242 22.7973 52.8801 20.9532C51.036 19.1091 50 16.608 50 14V3H26.5ZM26.5 0C23.892 0 21.3909 1.03601 19.5468 2.88012C17.7027 4.72422 16.6667 7.22537 16.6667 9.83333V59.8333C16.6667 62.4413 17.7027 64.9424 19.5468 66.7865C21.3909 68.6307 23.892 69.6667 26.5 69.6667H64C66.608 69.6667 69.1091 68.6307 70.9532 66.7865C72.7973 64.9424 73.8333 62.4413 73.8333 59.8333V22.3382C73.8333 22.3366 73.8333 22.3349 73.8333 22.3333C73.8333 22.3317 73.8333 22.3301 73.8333 22.3285V18.1667C73.8333 17.7688 73.6753 17.3873 73.394 17.106L56.7273 0.43934C56.446 0.158035 56.0645 0 55.6667 0H26.5ZM53 3V14C53 15.8123 53.7199 17.5504 55.0014 18.8319C56.2829 20.1134 58.021 20.8333 59.8333 20.8333H70.8333V18.788L55.0453 3H53ZM1.5 23.3333C2.32843 23.3333 3 24.0049 3 24.8333V78.1667C3 79.5369 3.54434 80.8511 4.51328 81.82C5.48222 82.789 6.79638 83.3333 8.16667 83.3333H49C49.8284 83.3333 50.5 84.0049 50.5 84.8333C50.5 85.6618 49.8284 86.3333 49 86.3333H8.16667C6.00073 86.3333 3.92351 85.4729 2.39196 83.9414C0.860413 82.4098 0 80.3326 0 78.1667V24.8333C0 24.0049 0.671573 23.3333 1.5 23.3333Z" fill="#946CC4"/>
</svg>
