<svg width="88" height="88" viewBox="0 0 88 88" fill="none" xmlns="http://www.w3.org/2000/svg">
<path fill-rule="evenodd" clip-rule="evenodd" d="M19 3.83337C12.9249 3.83337 8.00004 8.75824 8.00004 14.8334C8.00004 20.9085 12.9249 25.8334 19 25.8334C25.0752 25.8334 30 20.9085 30 14.8334C30 8.75824 25.0752 3.83337 19 3.83337ZM5.00004 14.8334C5.00004 7.10139 11.2681 0.833374 19 0.833374C26.732 0.833374 33 7.10139 33 14.8334C33 22.5654 26.732 28.8334 19 28.8334C11.2681 28.8334 5.00004 22.5654 5.00004 14.8334ZM60.6667 20.9167C54.8217 20.9167 50.0834 25.655 50.0834 31.5C50.0834 37.3451 54.8217 42.0834 60.6667 42.0834C63.2091 42.0834 65.5421 41.1869 67.3668 39.6929L68.338 38.7911C70.1426 36.893 71.25 34.3258 71.25 31.5C71.25 25.655 66.5117 20.9167 60.6667 20.9167ZM73.8974 34.5883C74.1281 33.5962 74.25 32.5624 74.25 31.5C74.25 23.9982 68.1686 17.9167 60.6667 17.9167C53.1648 17.9167 47.0834 23.9982 47.0834 31.5C47.0834 34.0041 47.7609 36.3498 48.9427 38.364C48.6855 38.3437 48.4266 38.3334 48.1667 38.3334H35.6667C32.8941 38.3334 30.3305 39.2505 28.7107 41.3322L6.51915 62.7312L3.39403 59.606C2.80825 59.0203 1.8585 59.0203 1.27271 59.606C0.686927 60.1918 0.686927 61.1416 1.27271 61.7274L5.43714 65.8918C5.43888 65.8935 5.44063 65.8953 5.44238 65.897L22.0978 82.5524C22.1039 82.5587 22.1102 82.5649 22.1164 82.5711L26.2727 86.7274C26.8585 87.3131 27.8082 87.3131 28.394 86.7274C28.9798 86.1416 28.9798 85.1918 28.394 84.606L25.3611 81.5731L30.8211 76.7956C30.8996 76.7269 30.9708 76.6502 31.0334 76.5667C31.9185 75.3866 33.4838 74.6667 35.6667 74.6667H52.3334C57.2642 74.6667 61.8463 72.874 65.0838 69.2058L84.197 50.9236C84.1981 50.9225 84.1993 50.9214 84.2005 50.9203C86.0953 49.1278 87.2012 46.6564 87.2749 44.049C87.3487 41.4399 86.383 38.9085 84.5902 37.0114C82.7975 35.1144 80.3246 34.0073 77.7156 33.9335C76.3993 33.8963 75.1027 34.1237 73.8974 34.5883ZM69.3429 41.9519C69.7284 41.6315 70.0959 41.2902 70.4436 40.9297L72.729 38.8076L72.7386 38.7986C74.0574 37.5524 75.8171 36.881 77.6308 36.9323C79.4445 36.9836 81.1636 37.7532 82.4098 39.072C83.6561 40.3907 84.3274 42.1505 84.2761 43.9642C84.2248 45.7779 83.4552 47.4969 82.1364 48.7432L82.1299 48.7494L62.9632 67.0827C62.9311 67.1134 62.9004 67.1455 62.8712 67.1789C60.2778 70.1427 56.5463 71.6667 52.3334 71.6667H35.6667C32.9077 71.6667 30.3556 72.5749 28.7345 74.635L23.2351 79.4471L8.64082 64.8528L30.8746 43.4131C30.9322 43.3575 30.9853 43.2974 31.0334 43.2334C31.9185 42.0532 33.4838 41.3334 35.6667 41.3334H48.1667C49.979 41.3334 51.7171 42.0533 52.9986 43.3348C54.2801 44.6163 55 46.3544 55 48.1667C55 49.979 54.2801 51.7171 52.9986 52.9986C51.7171 54.2801 49.979 55 48.1667 55H39.8334C39.0049 55 38.3334 55.6716 38.3334 56.5C38.3334 57.3285 39.0049 58 39.8334 58H48.1667C50.7255 58 53.1814 57.0028 55.0149 55.2234C55.0898 55.1755 55.1615 55.1202 55.229 55.0576L69.3429 41.9519ZM61.5953 45.0521C61.2884 45.0728 60.9788 45.0834 60.6667 45.0834C59.5263 45.0834 58.4188 44.9428 57.3604 44.6782C57.7794 45.7822 58 46.9631 58 48.1667C58 48.2422 57.9992 48.3177 57.9974 48.393L61.5953 45.0521Z" fill="#946CC4"/>
</svg>
